<?xml version="1.0" encoding="UTF-8"?>
<svg xmlns="http://www.w3.org/2000/svg" xmlns:xlink="http://www.w3.org/1999/xlink" width="728.03pt" height="180.22pt" viewBox="0 0 728.03 180.22" version="1.1">
<defs>
<clipPath id="clip1">
  <path d="M 110 135 L 191 135 L 191 180.21875 L 110 180.21875 Z M 110 135 "/>
</clipPath>
<clipPath id="clip2">
  <path d="M 196 135 L 265 135 L 265 180.21875 L 196 180.21875 Z M 196 135 "/>
</clipPath>
<clipPath id="clip3">
  <path d="M 270 135 L 351 135 L 351 180.21875 L 270 180.21875 Z M 270 135 "/>
</clipPath>
<clipPath id="clip4">
  <path d="M 356 135 L 433 135 L 433 180.21875 L 356 180.21875 Z M 356 135 "/>
</clipPath>
<clipPath id="clip5">
  <path d="M 437 135 L 517 135 L 517 180.21875 L 437 180.21875 Z M 437 135 "/>
</clipPath>
<clipPath id="clip6">
  <path d="M 521 135 L 588 135 L 588 180.21875 L 521 180.21875 Z M 521 135 "/>
</clipPath>
<clipPath id="clip7">
  <path d="M 585 135 L 654 135 L 654 180.21875 L 585 180.21875 Z M 585 135 "/>
</clipPath>
<clipPath id="clip8">
  <path d="M 659 135 L 728.03125 135 L 728.03125 180.21875 L 659 180.21875 Z M 659 135 "/>
</clipPath>
</defs>
<g id="surface1">
<path style=" stroke:none;fill-rule:nonzero;fill:rgb(59.199524%,10.198975%,11.399841%);fill-opacity:1;" d="M 66.257813 40.953125 C 57.519531 83.160156 48.179688 128.765625 38.746094 169.921875 C 62.398438 169.921875 79.242188 165.15625 91.695313 152.039063 C 104.667969 138.351563 107.734375 114.421875 113.316406 88.585938 C 116.324219 74.714844 120.308594 54.652344 123.117188 40.953125 C 114.003906 40.867188 89.847656 41.039063 66.257813 40.953125 M 204.90625 0.03125 C 136.554688 -0.00390625 63.101563 0.410156 0.226563 -0.00390625 C -0.765625 12.734375 1.566406 21.535156 6.144531 27.140625 C 19.871094 32.972656 175.773438 33.949219 189.972656 27.367188 C 197.113281 24.054688 203.75 11.253906 204.90625 0.03125 M 243.988281 99.71875 C 236.996094 105.445313 217.421875 103.652344 205.449219 104.097656 C 195.425781 104.460938 179.109375 105.222656 175.859375 98.15625 C 172.8125 91.582031 177.179688 70.328125 180.410156 65.261719 C 181.992188 62.785156 185.761719 60.398438 190.050781 59.15625 C 195.851563 57.480469 209.515625 57.648438 222.46875 57.746094 C 231.253906 57.808594 245.890625 56.261719 250.3125 61.679688 C 256.578125 69.355469 249.050781 95.558594 243.988281 99.71875 M 298.171875 94.988281 C 300.839844 89.050781 303.898438 71.78125 302.714844 65.171875 C 298.398438 40.070313 259.546875 40.851563 210.175781 40.851563 C 209.601563 40.878906 209.007813 40.832031 208.433594 40.832031 C 169.488281 40.832031 145.5625 42.933594 132.398438 61.800781 C 127.941406 68.183594 122.664063 88.992188 126.054688 99.839844 C 131.679688 117.816406 161.230469 120.3125 187.996094 120.3125 C 245.769531 120.3125 249.3125 119.390625 265.550781 117.132813 C 280.570313 115.414063 292.640625 107.257813 298.171875 94.988281 M 478.828125 101.882813 C 483.878906 94.980469 499.03125 17.96875 503.066406 0.296875 C 479.421875 0.296875 462.578125 5.042969 450.132813 18.171875 C 437.15625 31.859375 425.160156 91.730469 423.417969 95.007813 C 417.546875 106.03125 407.171875 104.339844 386.390625 104.339844 C 370.984375 104.097656 365.039063 104.097656 360.449219 97.472656 C 356.535156 90.925781 360.359375 72.171875 362.984375 67.304688 C 375.046875 45.460938 423.085938 72.492188 428.480469 40.953125 C 366.332031 40.953125 328.792969 37.675781 315.257813 62.257813 C 312.738281 67.441406 306.832031 87.695313 307.605469 96.433594 C 308.609375 107.601563 323.183594 116.398438 335.4375 118.324219 C 346.949219 120.113281 368.554688 120.152344 388.5625 120.304688 C 407.339844 120.449219 424.011719 120.109375 439.414063 119.125 C 453.683594 118.210938 471.875 111.367188 478.828125 101.882813 M 611.34375 99.71875 C 604.347656 105.445313 584.777344 103.652344 572.8125 104.097656 C 562.761719 104.460938 546.476563 105.222656 543.214844 98.15625 C 540.191406 91.582031 544.535156 70.328125 547.78125 65.261719 C 549.363281 62.785156 553.132813 60.398438 557.410156 59.15625 C 563.210938 57.480469 576.875 57.648438 589.828125 57.746094 C 598.621094 57.808594 613.242188 56.261719 617.675781 61.679688 C 623.933594 69.355469 616.40625 95.558594 611.34375 99.71875 M 670.054688 65.171875 C 665.75 40.070313 626.90625 40.851563 577.550781 40.851563 C 576.957031 40.878906 576.367188 40.832031 575.800781 40.832031 C 536.84375 40.832031 512.898438 42.933594 499.734375 61.800781 C 495.285156 68.183594 490.023438 88.992188 493.414063 99.839844 C 499.03125 117.816406 528.582031 120.3125 555.339844 120.3125 C 613.132813 120.3125 616.671875 119.382813 632.914063 117.132813 C 647.929688 115.414063 660.011719 107.257813 665.511719 94.988281 C 668.191406 89.050781 671.257813 71.78125 670.054688 65.171875 "/>
<g clip-path="url(#clip1)" clip-rule="nonzero">
<path style=" stroke:none;fill-rule:nonzero;fill:rgb(13.299561%,11.799622%,12.199402%);fill-opacity:1;" d="M 174.253906 168.109375 L 179.339844 146.960938 C 179.585938 145.9375 179.164063 145.054688 178.082031 144.308594 C 177.226563 143.734375 175.976563 143.234375 174.332031 142.8125 C 172.683594 142.394531 170.28125 142.1875 167.121094 142.1875 L 129.355469 142.1875 L 121.816406 173.507813 L 159.40625 173.507813 C 162.839844 173.507813 165.792969 173.175781 168.273438 172.492188 C 171.109375 171.734375 172.976563 170.605469 173.875 169.121094 C 174.027344 168.867188 174.152344 168.53125 174.253906 168.109375 M 184.773438 168.222656 C 184.273438 170.296875 183.355469 171.980469 182.015625 173.261719 L 182.242188 172.886719 C 180.40625 174.992188 177.28125 176.738281 172.867188 178.132813 C 168.449219 179.527344 163.515625 180.21875 158.0625 180.21875 L 113.367188 180.21875 C 110.898438 180.21875 109.894531 179.257813 110.355469 177.324219 L 119.734375 138.335938 C 120.191406 136.429688 121.660156 135.472656 124.132813 135.472656 L 169.101563 135.472656 C 172.296875 135.472656 174.820313 135.617188 176.679688 135.894531 C 179.636719 136.265625 181.984375 136.773438 183.734375 137.398438 C 186.125 138.238281 187.84375 139.359375 188.894531 140.753906 C 190.152344 142.410156 190.488281 144.464844 189.898438 146.917969 "/>
</g>
<g clip-path="url(#clip2)" clip-rule="nonzero">
<path style=" stroke:none;fill-rule:nonzero;fill:rgb(13.299561%,11.799622%,12.199402%);fill-opacity:1;" d="M 264.875 157.78125 L 264.554688 158.726563 C 264.117188 160.539063 262.664063 161.457031 260.195313 161.457031 L 209.359375 161.457031 L 207.589844 168.785156 C 207.226563 170.316406 208.199219 171.480469 210.523438 172.292969 C 212.84375 173.101563 216.007813 173.507813 220.019531 173.507813 L 257.320313 173.507813 C 259.792969 173.507813 260.796875 174.472656 260.328125 176.410156 L 260.113281 177.320313 C 259.644531 179.253906 258.179688 180.21875 255.710938 180.21875 L 217.929688 180.21875 C 216.453125 180.21875 215.007813 180.148438 213.597656 180.011719 C 210.757813 179.800781 208.253906 179.425781 206.097656 178.878906 C 203.9375 178.328125 202.140625 177.617188 200.695313 176.734375 C 197.460938 174.777344 196.222656 172.21875 196.984375 169.050781 L 202.316406 146.886719 C 202.84375 144.679688 204.246094 142.730469 206.519531 141.0625 C 208.429688 139.640625 210.921875 138.460938 214.007813 137.535156 C 217.09375 136.601563 220.800781 135.976563 225.128906 135.648438 C 226.296875 135.53125 227.792969 135.472656 229.597656 135.472656 L 239.902344 135.472656 C 242.371094 135.472656 243.375 136.441406 242.914063 138.359375 L 242.691406 139.265625 C 242.226563 141.214844 240.761719 142.1875 238.289063 142.1875 L 227.597656 142.1875 L 224.628906 142.308594 C 221.441406 142.308594 218.753906 142.726563 216.566406 143.550781 C 214.382813 144.375 213.121094 145.5 212.777344 146.917969 L 210.898438 154.738281 L 261.855469 154.738281 C 264.355469 154.738281 265.359375 155.753906 264.875 157.78125 "/>
</g>
<g clip-path="url(#clip3)" clip-rule="nonzero">
<path style=" stroke:none;fill-rule:nonzero;fill:rgb(13.299561%,11.799622%,12.199402%);fill-opacity:1;" d="M 338.589844 152.160156 L 340.058594 146.054688 C 340.410156 144.59375 339.113281 143.539063 336.167969 142.886719 C 334.023438 142.417969 331.035156 142.1875 327.214844 142.1875 L 289.996094 142.1875 L 286.289063 157.597656 L 323.554688 157.597656 C 327.890625 157.597656 331.152344 157.289063 333.351563 156.660156 C 336.324219 155.820313 338.070313 154.320313 338.589844 152.160156 M 349.074219 152.425781 C 348.0625 156.617188 344.734375 159.730469 339.09375 161.753906 C 334.375 163.460938 328.457031 164.3125 321.339844 164.3125 L 284.675781 164.3125 L 281.546875 177.328125 C 281.082031 179.257813 279.601563 180.21875 277.109375 180.21875 L 274 180.21875 C 271.535156 180.21875 270.535156 179.257813 271 177.324219 L 280.375 138.335938 C 280.835938 136.429688 282.300781 135.472656 284.773438 135.472656 L 328.792969 135.472656 C 335.570313 135.472656 341.003906 136.300781 345.09375 137.960938 C 349.621094 139.796875 351.507813 142.304688 350.742188 145.476563 "/>
</g>
<g clip-path="url(#clip4)" clip-rule="nonzero">
<path style=" stroke:none;fill-rule:nonzero;fill:rgb(13.299561%,11.799622%,12.199402%);fill-opacity:1;" d="M 416.796875 168.039063 L 421.664063 147.828125 C 422.144531 145.8125 421.167969 144.359375 418.726563 143.488281 C 416.28125 142.621094 412.363281 142.1875 406.964844 142.1875 L 390.191406 142.1875 C 384.945313 142.1875 380.910156 142.605469 378.089844 143.441406 C 374.96875 144.367188 373.164063 145.832031 372.691406 147.828125 L 367.828125 168.039063 C 367.347656 170.03125 368.40625 171.46875 371.003906 172.324219 C 373.375 173.109375 377.257813 173.507813 382.65625 173.507813 L 399.472656 173.507813 C 404.660156 173.507813 408.628906 173.128906 411.375 172.359375 C 414.507813 171.476563 416.316406 170.03125 416.796875 168.039063 M 427.300781 168.214844 C 426.398438 171.960938 423.675781 174.84375 419.121094 176.871094 C 414.09375 179.101563 406.921875 180.21875 397.582031 180.21875 L 381.144531 180.21875 C 374.210938 180.21875 368.769531 179.566406 364.804688 178.265625 C 361.453125 177.175781 359.179688 175.625 357.972656 173.625 C 357.007813 172.015625 356.753906 170.230469 357.234375 168.246094 L 362.195313 147.621094 C 363.238281 143.269531 366.644531 140.082031 372.402344 138.054688 C 377.269531 136.335938 383.757813 135.472656 391.863281 135.472656 L 408.34375 135.472656 C 418.253906 135.472656 425.015625 136.457031 428.644531 138.410156 C 432.085938 140.269531 433.285156 143.339844 432.257813 147.621094 "/>
</g>
<g clip-path="url(#clip5)" clip-rule="nonzero">
<path style=" stroke:none;fill-rule:nonzero;fill:rgb(13.299561%,11.799622%,12.199402%);fill-opacity:1;" d="M 504.546875 152.203125 L 505.894531 146.605469 C 506.273438 145.023438 505.140625 143.859375 502.480469 143.117188 C 500.1875 142.496094 496.734375 142.1875 492.117188 142.1875 L 456.472656 142.1875 L 453.0625 156.351563 L 490.613281 156.351563 C 494.410156 156.351563 497.519531 156.035156 499.9375 155.386719 C 502.675781 154.648438 504.214844 153.589844 504.546875 152.203125 M 515.101563 152.160156 C 514.191406 155.949219 511.019531 158.796875 505.59375 160.699219 C 501.082031 162.28125 495.574219 163.070313 489.0625 163.070313 L 471.644531 163.164063 L 504.171875 174.707031 C 505.027344 175.003906 505.636719 175.40625 505.980469 175.902344 C 506.335938 176.398438 506.433594 176.933594 506.292969 177.515625 C 506.113281 178.257813 505.585938 178.890625 504.710938 179.417969 C 503.832031 179.953125 502.734375 180.21875 501.414063 180.21875 C 500.238281 180.199219 499.042969 180.179688 497.820313 180.164063 C 496.605469 180.136719 495.855469 180.085938 495.574219 180 L 451.210938 164.070313 L 448.019531 177.324219 C 447.554688 179.257813 446.078125 180.21875 443.578125 180.21875 L 440.472656 180.21875 C 438.011719 180.21875 437.011719 179.257813 437.472656 177.324219 L 446.851563 138.335938 C 447.3125 136.429688 448.773438 135.472656 451.246094 135.472656 L 493.765625 135.472656 C 501.027344 135.472656 506.636719 136.265625 510.59375 137.84375 C 515.429688 139.773438 517.371094 142.742188 516.402344 146.761719 "/>
</g>
<g clip-path="url(#clip6)" clip-rule="nonzero">
<path style=" stroke:none;fill-rule:nonzero;fill:rgb(13.299561%,11.799622%,12.199402%);fill-opacity:1;" d="M 586.742188 139.265625 C 586.273438 141.214844 584.796875 142.1875 582.296875 142.1875 L 558.886719 142.1875 L 550.429688 177.328125 C 549.96875 179.257813 548.5 180.21875 546.027344 180.21875 L 542.902344 180.21875 C 540.425781 180.21875 539.421875 179.257813 539.886719 177.328125 L 548.339844 142.1875 L 525.078125 142.1875 C 522.574219 142.1875 521.558594 141.214844 522.027344 139.265625 L 522.25 138.359375 C 522.707031 136.441406 524.191406 135.472656 526.695313 135.472656 L 583.90625 135.472656 C 586.40625 135.472656 587.421875 136.441406 586.964844 138.359375 "/>
</g>
<g clip-path="url(#clip7)" clip-rule="nonzero">
<path style=" stroke:none;fill-rule:nonzero;fill:rgb(13.299561%,11.799622%,12.199402%);fill-opacity:1;" d="M 653.554688 157.78125 L 653.234375 158.726563 C 652.800781 160.539063 651.339844 161.457031 648.871094 161.457031 L 598.03125 161.457031 L 596.269531 168.785156 C 595.898438 170.316406 596.878906 171.480469 599.203125 172.292969 C 601.527344 173.101563 604.6875 173.507813 608.695313 173.507813 L 646 173.507813 C 648.46875 173.507813 649.472656 174.472656 649.007813 176.410156 L 648.792969 177.320313 C 648.320313 179.253906 646.855469 180.21875 644.386719 180.21875 L 606.605469 180.21875 C 605.136719 180.21875 603.683594 180.148438 602.277344 180.011719 C 599.4375 179.800781 596.933594 179.425781 594.777344 178.878906 C 592.613281 178.328125 590.816406 177.617188 589.371094 176.734375 C 586.136719 174.777344 584.898438 172.21875 585.660156 169.050781 L 590.992188 146.886719 C 591.523438 144.679688 592.925781 142.730469 595.195313 141.0625 C 597.105469 139.640625 599.597656 138.460938 602.683594 137.535156 C 605.765625 136.601563 609.480469 135.976563 613.808594 135.648438 C 614.976563 135.53125 616.46875 135.472656 618.277344 135.472656 L 628.578125 135.472656 C 631.046875 135.472656 632.050781 136.441406 631.589844 138.359375 L 631.371094 139.265625 C 630.902344 141.214844 629.433594 142.1875 626.96875 142.1875 L 616.269531 142.1875 L 613.308594 142.308594 C 610.117188 142.308594 607.433594 142.726563 605.246094 143.550781 C 603.0625 144.375 601.800781 145.5 601.453125 146.917969 L 599.578125 154.738281 L 650.53125 154.738281 C 653.035156 154.738281 654.035156 155.753906 653.554688 157.78125 "/>
</g>
<g clip-path="url(#clip8)" clip-rule="nonzero">
<path style=" stroke:none;fill-rule:nonzero;fill:rgb(13.299561%,11.799622%,12.199402%);fill-opacity:1;" d="M 726.859375 169.171875 C 726.261719 171.640625 725.261719 173.558594 723.851563 174.921875 C 722.074219 176.667969 719.351563 177.957031 715.691406 178.789063 C 711.546875 179.75 705.9375 180.21875 698.859375 180.21875 L 662.316406 180.21875 C 659.84375 180.21875 658.84375 179.253906 659.308594 177.320313 L 659.527344 176.410156 C 659.996094 174.472656 661.457031 173.507813 663.929688 173.507813 L 700.496094 173.507813 C 706.007813 173.507813 710.074219 173.070313 712.695313 172.183594 C 714.796875 171.488281 715.984375 170.527344 716.28125 169.300781 L 717.210938 165.4375 C 717.597656 163.839844 716.652344 162.699219 714.375 161.996094 C 712.105469 161.304688 708.53125 160.953125 703.648438 160.953125 L 689.683594 160.953125 C 680.578125 160.953125 674.046875 160.011719 670.070313 158.125 C 666.316406 156.328125 664.851563 153.707031 665.683594 150.253906 L 666.492188 146.902344 C 667.402344 143.128906 669.78125 140.355469 673.640625 138.585938 C 678.144531 136.511719 685.1875 135.472656 694.769531 135.472656 L 700.148438 135.472656 C 702.644531 135.472656 703.664063 136.441406 703.203125 138.359375 L 702.980469 139.265625 C 702.515625 141.214844 701.03125 142.1875 698.527344 142.1875 L 693.011719 142.1875 C 688.363281 142.1875 684.738281 142.523438 682.132813 143.199219 C 679.144531 143.964844 677.449219 145.1875 677.046875 146.867188 L 676.296875 149.964844 C 675.925781 151.523438 676.886719 152.605469 679.199219 153.207031 C 681.507813 153.8125 685.484375 154.117188 691.117188 154.117188 L 705.261719 154.117188 C 713.214844 154.117188 719.167969 155.117188 723.117188 157.117188 C 727.0625 159.113281 728.632813 161.800781 727.820313 165.164063 "/>
</g>
</g>
</svg>
